<?xml version="1.0" standalone="no"?>
<!DOCTYPE svg PUBLIC "-//W3C//DTD SVG 20010904//EN"
 "http://www.w3.org/TR/2001/REC-SVG-20010904/DTD/svg10.dtd">
<svg version="1.0" xmlns="http://www.w3.org/2000/svg"
 width="512.000000pt" height="512.000000pt" viewBox="0 0 512.000000 512.000000"
 preserveAspectRatio="xMidYMid meet">

<g transform="translate(0.000000,512.000000) scale(0.100000,-0.100000)"
fill="#808080" stroke="none">
<path d="M1045 5109 c-142 -19 -338 -85 -426 -143 -47 -31 -75 -97 -64 -153 6
-33 48 -79 320 -353 270 -272 314 -320 320 -352 22 -118 -65 -205 -182 -183
-33 6 -81 50 -353 320 -350 348 -345 345 -436 310 -53 -20 -79 -55 -128 -171
-135 -322 -125 -683 26 -989 63 -127 125 -213 228 -316 217 -219 473 -332 797
-355 l101 -7 -54 -89 c-30 -49 -69 -112 -88 -139 l-33 -49 -22 24 c-34 36
-110 73 -176 86 -72 14 -150 3 -217 -31 -27 -13 -144 -122 -320 -297 -319
-317 -332 -336 -333 -472 0 -98 16 -146 70 -217 63 -83 1453 -1467 1495 -1488
48 -25 127 -45 175 -45 48 0 127 20 175 45 50 25 573 551 598 600 64 131 49
277 -40 389 l-31 39 24 18 c26 19 237 149 243 149 2 0 7 -44 11 -97 23 -324
137 -579 354 -793 141 -141 299 -237 478 -293 127 -40 206 -52 363 -52 201 0
342 32 517 116 85 41 115 71 128 127 15 73 10 80 -320 412 -270 272 -314 320
-320 352 -22 118 65 205 182 183 33 -6 81 -50 353 -320 350 -348 345 -345 436
-310 53 20 79 55 128 171 194 463 84 988 -279 1333 -86 81 -209 166 -312 213
-37 17 -70 32 -71 34 -2 1 168 602 377 1336 210 733 381 1344 381 1356 0 61
-72 119 -134 109 -17 -3 -621 -174 -1343 -381 -721 -207 -1315 -376 -1320
-376 -5 0 -22 30 -38 67 -16 36 -55 106 -86 154 -172 262 -447 449 -759 514
-92 20 -301 27 -395 14z m380 -318 c341 -90 596 -372 656 -725 17 -99 6 -303
-20 -391 -23 -78 -27 -135 -10 -168 16 -31 1418 -1435 1451 -1453 38 -20 90
-18 177 8 65 19 100 22 241 22 151 0 173 -2 253 -27 338 -104 572 -363 633
-702 21 -117 15 -277 -12 -369 -5 -14 -52 27 -232 207 -181 179 -239 231 -287
254 -203 101 -423 52 -564 -127 -75 -94 -108 -245 -81 -361 28 -119 58 -160
297 -400 155 -157 220 -228 210 -232 -42 -16 -190 -29 -271 -24 -383 24 -696
278 -808 655 -20 67 -23 98 -22 237 0 140 3 172 26 254 43 158 112 71 -715
898 -827 827 -740 758 -898 715 -124 -34 -351 -38 -469 -8 -319 79 -564 321
-651 641 -27 98 -32 317 -10 403 l13 54 227 -225 c236 -234 274 -264 386 -293
101 -27 228 -11 327 43 58 31 147 123 177 181 49 95 63 220 37 317 -29 112
-59 150 -293 387 l-225 226 53 11 c30 6 63 13 74 15 49 12 254 -3 330 -23z
m2504 -697 l-666 -666 -67 26 c-167 67 -352 32 -487 -92 l-55 -51 -149 149
-149 149 12 49 c24 107 35 266 23 368 -5 54 -7 102 -3 105 8 8 2170 627 2192
628 8 1 -285 -299 -651 -665z m518 -614 l-313 -1095 -29 2 c-130 10 -319 5
-404 -11 l-93 -18 -149 148 -148 148 51 55 c124 135 159 320 92 487 l-26 67
663 663 c365 365 665 661 666 657 2 -5 -138 -501 -310 -1103z m-1362 -231 c54
-14 118 -67 147 -123 28 -53 30 -146 4 -196 -21 -40 -75 -100 -90 -100 -14 0
-316 302 -316 315 0 14 58 69 89 85 60 31 101 35 166 19z m-948 -1111 c332
-332 603 -606 603 -610 0 -3 -51 -34 -112 -68 -62 -35 -156 -90 -208 -123 -52
-33 -107 -67 -122 -76 l-28 -16 -510 510 c-280 280 -510 518 -510 527 0 9 4
20 10 23 13 8 155 239 214 348 26 48 50 87 54 87 4 0 278 -271 609 -602z
m-549 -541 c407 -406 720 -726 728 -744 29 -67 21 -79 -255 -354 -275 -276
-287 -284 -354 -255 -41 18 -1453 1432 -1466 1468 -24 63 -12 79 253 345 265
266 284 280 351 261 21 -6 245 -222 743 -721z"/>
</g>
</svg>
